<?xml version="1.0" standalone="no"?>
<!DOCTYPE svg PUBLIC "-//W3C//DTD SVG 20010904//EN" "http://www.w3.org/TR/2001/REC-SVG-20010904/DTD/svg10.dtd">
<svg version="1.0" xmlns="http://www.w3.org/2000/svg"
    width="178.000000pt" height="123.000000pt" viewBox="0 0 178.000000 123.000000"
    preserveAspectRatio="xMidYMid meet">

    <g transform="translate(0.000000,123.000000) scale(0.100000,-0.100000)"
        fill="#000000" stroke="none">
        <path
            d="M733 768 c-27 -13 -36 -36 -35 -91 1 -54 25 -76 90 -84 50 -6 52 -7
52 -36 l0 -30 -69 7 c-68 6 -69 6 -75 -20 -4 -15 -5 -29 -2 -31 9 -9 133 -16
160 -9 43 11 66 41 66 85 0 60 -32 92 -99 99 -49 4 -52 6 -49 31 3 25 5 26 65
25 60 -1 61 0 65 27 3 21 0 29 -16 33 -34 9 -129 5 -153 -6z" />
        <path
            d="M140 625 l0 -145 35 0 c35 0 35 0 35 45 0 41 2 45 25 45 19 0 28 -9
44 -45 19 -43 22 -45 61 -45 l40 0 -25 50 c-23 46 -24 52 -10 66 32 32 31 106
-1 152 -14 20 -23 22 -110 22 l-94 0 0 -145z m150 45 l0 -40 -40 0 -40 0 0 40
0 40 40 0 40 0 0 -40z" />
        <path
            d="M477 763 c-6 -9 -77 -267 -77 -277 0 -4 17 -6 38 -4 30 2 38 7 40 26
3 20 9 22 57 22 48 0 54 -2 57 -22 2 -19 10 -24 41 -26 34 -3 38 -1 33 15 -3
10 -19 68 -36 128 -17 61 -33 118 -36 128 -4 13 -17 17 -59 17 -30 0 -56 -3
-58 -7z m72 -171 c-43 -8 -47 -1 -30 58 l15 55 17 -55 c16 -53 16 -55 -2 -58z" />
        <path
            d="M970 625 l0 -145 88 0 c100 0 126 12 137 61 5 24 2 38 -15 61 -16 22
-19 33 -11 41 6 6 11 30 11 52 0 64 -19 75 -123 75 l-87 0 0 -145z m135 60 c0
-27 -4 -30 -32 -33 -32 -3 -33 -2 -33 33 0 35 1 36 33 33 28 -3 32 -6 32 -33z
m10 -120 c0 -27 -3 -30 -37 -33 -38 -3 -38 -3 -38 33 0 36 0 36 38 33 34 -3
37 -6 37 -33z" />
        <path
            d="M1250 625 l0 -145 95 0 95 0 0 30 0 30 -60 0 -60 0 0 30 c0 29 1 30
50 30 47 0 50 2 50 25 0 23 -3 25 -50 25 -49 0 -50 1 -50 30 0 30 1 30 54 30
40 0 55 4 60 16 16 41 10 44 -89 44 l-95 0 0 -145z" />
        <path
            d="M1462 743 c3 -24 8 -28 41 -31 l37 -3 0 -115 0 -114 35 0 35 0 0 115
0 115 35 0 c32 0 35 2 35 30 l0 30 -111 0 -110 0 3 -27z" />
    </g>
</svg>